<?xml version="1.0" encoding="UTF-8" standalone="no"?>
<!-- Created with Inkscape (http://www.inkscape.org/) -->

<svg
   width="30mm"
   height="14mm"
   viewBox="0 0 30 14"
   version="1.1"
   id="svg1"
   xml:space="preserve"
   xmlns:inkscape="http://www.inkscape.org/namespaces/inkscape"
   xmlns:sodipodi="http://sodipodi.sourceforge.net/DTD/sodipodi-0.dtd"
   xmlns="http://www.w3.org/2000/svg"
   xmlns:svg="http://www.w3.org/2000/svg"><sodipodi:namedview
     id="namedview1"
     pagecolor="#ffffff"
     bordercolor="#000000"
     borderopacity="0.25"
     inkscape:showpageshadow="2"
     inkscape:pageopacity="0.0"
     inkscape:pagecheckerboard="0"
     inkscape:deskcolor="#d1d1d1"
     inkscape:document-units="mm" /><defs
     id="defs1" /><g
     inkscape:label="Layer 1"
     inkscape:groupmode="layer"
     id="layer1"><path
       style="fill:#000000;stroke-width:0.107973"
       d="m 0.59557879,13.009815 0.11856028,-0.153231 0.21881829,-0.01691 c 0.27323424,-0.02103 0.36559024,-0.0554 0.40130264,-0.149373 0.015431,-0.04059 0.028055,-0.240075 0.028055,-0.44331 v -0.369519 h 0.1856893 0.1856893 v 0.422458 c 0,0.381293 -0.00631,0.434881 -0.064274,0.549927 C 1.5570984,13.072591 1.290863,13.162343 0.74112094,13.1628 l -0.2641009,2.1e-4 z m 1.80212921,0.10904 c -0.1823207,-0.04909 -0.2738851,-0.106398 -0.3576508,-0.22383 -0.05825,-0.08163 -0.064338,-0.127708 -0.073142,-0.553301 l -0.0096,-0.464217 h 0.1881475 0.1881475 v 0.398352 c 0,0.379868 0.0032,0.402072 0.068918,0.478505 0.067867,0.07898 0.07379,0.08017 0.388083,0.08017 0.3142752,0 0.320219,-9.14e-4 0.3881617,-0.08017 0.065819,-0.07642 0.069,-0.09849 0.069,-0.478505 V 11.877507 H 3.4334637 3.619153 v 0.429424 c 0,0.478889 -0.02194,0.568842 -0.1688762,0.692481 -0.050013,0.04205 -0.1569429,0.09612 -0.2376106,0.120083 -0.1833783,0.05448 -0.6115891,0.05412 -0.8149627,-6.49e-4 z m 1.4499908,-0.283781 v -0.327971 l 0.6202717,-0.0073 0.6202736,-0.0073 0.043697,-0.07798 c 0.041046,-0.07313 0.039674,-0.082 -0.021117,-0.142837 -0.062528,-0.06262 -0.085473,-0.06518 -0.6483198,-0.07368 l -0.5835027,-0.0091 0.1200083,-0.157317 0.1200083,-0.157317 0.4999335,0.0091 c 0.4670531,0.0082 0.5092322,0.01362 0.6412908,0.08035 0.1985086,0.100292 0.2585868,0.193216 0.2585868,0.399942 0,0.202376 -0.059877,0.299038 -0.2434027,0.392803 -0.1147446,0.0586 -0.165407,0.06427 -0.576822,0.06427 H 4.2475717 v 0.171404 0.171404 H 4.0476718 3.8476988 Z m 1.9140299,-0.314798 v -0.642769 h 0.1856921 0.1856829 v 0.642769 0.642769 H 5.9474208 5.7617287 Z m 1.1141342,0.157125 V 12.191748 H 6.5892665 6.302661 l 0.1186298,-0.157125 0.1186297,-0.157116 h 0.7121808 c 0.5821698,0 0.7080031,0.0073 0.6893269,0.03766 -0.012524,0.02075 -0.061431,0.09114 -0.1085466,0.156513 l -0.085656,0.118831 -0.2356871,6.4e-4 -0.2356781,6.49e-4 v 0.485653 0.485644 H 7.075889 6.8759086 Z m 1.25698,-0.157125 v -0.642769 h 0.7141919 c 0.3928032,0 0.7141923,0.0064 0.7141923,0.01499 0,0.0082 -0.047719,0.07898 -0.1060875,0.157125 L 9.349052,12.19172 H 8.9266393 8.5042179 v 0.08502 0.08502 l 0.4983602,0.0082 0.4983606,0.0082 L 9.3962498,12.513848 9.29157,12.649545 H 8.8978983 8.5042179 v 0.09936 0.09936 l 0.5273389,0.0073 0.5273301,0.0082 -0.1144064,0.149976 -0.1143972,0.149976 H 8.7314583 8.1328429 Z m 1.5997881,0.314241 v -0.328529 l 0.549927,-1.1e-4 c 0.61391,-2.1e-4 0.754625,-0.02322 0.780935,-0.128045 0.0094,-0.03766 0.0091,-0.08163 -8.14e-4,-0.09765 -0.03922,-0.06344 -0.253641,-0.08803 -0.767515,-0.08822 l -0.5373206,-1.1e-4 0.1230908,-0.159391 0.1230908,-0.159392 0.5285,0.0097 c 0.49623,0.0091 0.537129,0.01399 0.669855,0.08081 0.189614,0.09547 0.255296,0.190967 0.255296,0.371137 0,0.171157 -0.06564,0.275599 -0.222012,0.353293 l -0.107349,0.0533 0.08465,0.07523 c 0.04662,0.04132 0.139143,0.136282 0.205675,0.210914 l 0.12098,0.135697 -0.253605,-1.1e-4 -0.253614,-10e-5 -0.138439,-0.171304 -0.13844,-0.171294 h -0.311498 -0.311498 v 0.171404 0.171404 H 9.9325565 9.7325762 Z m 2.806343,-0.248751 c 0.183598,-0.625125 0.228081,-0.708259 0.378944,-0.708259 0.119809,0 0.166568,0.05558 0.414523,0.492784 0.11362,0.200337 0.210164,0.364245 0.214534,0.364245 0.0046,0 0.101041,-0.168927 0.214817,-0.375379 0.113766,-0.206462 0.230759,-0.399294 0.259985,-0.428519 0.07825,-0.07825 0.235678,-0.07002 0.303225,0.01591 0.02989,0.03794 0.12139,0.304697 0.203417,0.592774 0.082,0.288087 0.155827,0.546289 0.16399,0.573778 0.01307,0.04406 -0.0073,0.05 -0.171678,0.05 h -0.186514 l -0.03337,-0.121408 c -0.01838,-0.06682 -0.06811,-0.249473 -0.110521,-0.405995 l -0.07715,-0.284585 -0.179128,0.346556 c -0.21798,0.421736 -0.25536,0.465432 -0.39805,0.465432 -0.140433,0 -0.182091,-0.04772 -0.392703,-0.449599 -0.09253,-0.176578 -0.174813,-0.321197 -0.182858,-0.321389 -0.0082,-2.1e-4 -0.05942,0.169996 -0.114269,0.378186 l -0.09965,0.378523 -0.188892,0.0082 -0.1889,0.0082 z m 2.335827,-0.06545 v -0.642769 h 0.185693 0.185682 v 0.642769 0.642769 h -0.185682 -0.185693 z m 0.633994,0.06006 c 0.0082,-0.525703 0.01408,-0.588578 0.06317,-0.642769 0.033,-0.03638 0.08922,-0.06006 0.142836,-0.06006 0.07322,1.8e-5 0.162135,0.06609 0.516936,0.384237 l 0.428519,0.384219 0.0082,-0.384237 0.0082,-0.384237 h 0.170599 0.170599 v 0.558941 c 0,0.663036 -0.01865,0.726277 -0.214259,0.72529 -0.0692,-3.2e-4 -0.165645,-0.07167 -0.499933,-0.369721 -0.227825,-0.203107 -0.423874,-0.36983 -0.435658,-0.370506 -0.01179,-6.5e-4 -0.02139,0.1659 -0.02139,0.370159 v 0.371375 h -0.17304 -0.17304 z m 1.765688,-0.06006 v -0.642769 h 0.185692 0.185683 v 0.642769 0.642769 h -0.185683 -0.185692 z m 0.633993,0.06006 c 0.0082,-0.525703 0.01408,-0.588578 0.06317,-0.642769 0.033,-0.03638 0.08931,-0.06006 0.142846,-0.06006 0.07322,1.8e-5 0.162125,0.06609 0.516926,0.384237 l 0.428519,0.384219 0.0082,-0.384237 0.0082,-0.384237 h 0.170599 0.1706 v 0.558941 c 0,0.663036 -0.01865,0.726277 -0.21426,0.72529 -0.0692,-3.2e-4 -0.165644,-0.07167 -0.499932,-0.369721 -0.227825,-0.203107 -0.423875,-0.36983 -0.435658,-0.370506 -0.01179,-6.5e-4 -0.02139,0.1659 -0.02139,0.370159 v 0.371375 h -0.17304 -0.17304 z m 2.272322,0.551628 c -0.339179,-0.0799 -0.563046,-0.334837 -0.563613,-0.641791 -8.2e-5,-0.04799 0.03382,-0.155516 0.07542,-0.238969 0.149747,-0.30051 0.409641,-0.384045 1.146705,-0.368578 l 0.436701,0.0091 -0.108172,0.146923 -0.108181,0.146922 -0.399942,0.01042 c -0.466228,0.01216 -0.56928,0.04991 -0.639396,0.234142 -0.03629,0.09543 -0.03574,0.118602 0.0055,0.204661 0.07085,0.148632 0.186588,0.193142 0.541225,0.208198 l 0.307101,0.01307 V 12.752446 12.64879 h -0.33022 -0.330229 l 0.12044,-0.142837 0.120439,-0.142836 h 0.395482 0.395472 v 0.399942 0.399952 l -0.478505,-0.0027 c -0.263185,-0.0018 -0.526918,-0.01426 -0.586082,-0.02825 z m 2.571085,0 c -0.339178,-0.0799 -0.563046,-0.334837 -0.563612,-0.641791 -2.11e-4,-0.138723 0.134938,-0.378195 0.26036,-0.461191 0.173433,-0.114781 0.387382,-0.150534 0.903614,-0.151036 0.255323,-2.11e-4 0.464225,0.0064 0.464225,0.01463 0,0.0082 -0.04671,0.07752 -0.103738,0.153989 l -0.103747,0.138952 -0.389046,0.0117 c -0.450394,0.01353 -0.552606,0.04891 -0.622054,0.2151 -0.05796,0.138659 -0.0055,0.282346 0.133759,0.363943 0.0863,0.05074 0.163368,0.06015 0.590945,0.07258 l 0.491696,0.01426 -0.114479,0.149985 -0.11448,0.149976 -0.362937,-0.0027 c -0.199615,-0.0018 -0.411342,-0.01426 -0.470506,-0.02825 z m 1.693077,-0.0149 c -0.330037,-0.08867 -0.471146,-0.267381 -0.471146,-0.596805 0,-0.334498 0.141621,-0.509531 0.484283,-0.598543 0.218226,-0.05668 0.64073,-0.05677 0.859313,-1.09e-4 0.353403,0.09155 0.484511,0.25354 0.484511,0.598661 0,0.34513 -0.131108,0.507118 -0.484511,0.59867 -0.214122,0.05549 -0.662578,0.05448 -0.87245,-0.0018 z m 0.876655,-0.343009 c 0.156293,-0.116682 0.157628,-0.390947 0.0027,-0.506112 -0.05933,-0.04397 -0.135615,-0.06088 -0.319707,-0.07048 -0.314259,-0.01655 -0.485068,0.01079 -0.580342,0.09276 -0.06646,0.05714 -0.07697,0.08803 -0.07697,0.224836 0,0.276276 0.107047,0.335348 0.589181,0.325137 0.258998,-0.0055 0.317714,-0.01554 0.385426,-0.06609 z m 0.694565,0.06043 v -0.328529 l 0.549919,-1.1e-4 c 0.613918,-2.1e-4 0.754634,-0.02322 0.780934,-0.128045 0.0095,-0.03766 0.0091,-0.08163 -7.49e-4,-0.09765 -0.03922,-0.06344 -0.253642,-0.08803 -0.767524,-0.08822 l -0.537321,-1.1e-4 0.12309,-0.159391 0.123091,-0.159392 0.5285,0.0097 c 0.496239,0.0091 0.537139,0.01399 0.669855,0.08081 0.189614,0.09547 0.255296,0.190967 0.255296,0.371137 0,0.171157 -0.06564,0.275599 -0.222002,0.353293 l -0.107349,0.0533 0.08465,0.07523 c 0.04662,0.04132 0.139143,0.136282 0.205675,0.210914 l 0.120979,0.135697 -0.253604,-1.1e-4 -0.253605,-1e-4 -0.138449,-0.171304 -0.138439,-0.171294 h -0.311498 -0.311498 v 0.171404 0.171404 H 26.21616 26.016179 Z m 1.971163,5.39e-4 v -0.327971 l 0.620272,-0.0073 0.620272,-0.0073 0.0437,-0.07798 c 0.04105,-0.07313 0.03967,-0.082 -0.02112,-0.142836 -0.06253,-0.06262 -0.08547,-0.06518 -0.648318,-0.07368 l -0.583504,-0.0091 0.12001,-0.157316 0.12001,-0.157317 0.499933,0.0091 c 0.467059,0.0082 0.509229,0.01362 0.641288,0.08035 0.198508,0.100301 0.258586,0.193224 0.258586,0.399942 0,0.202375 -0.05988,0.299038 -0.243402,0.392812 -0.114745,0.0586 -0.165407,0.06427 -0.576822,0.06427 h -0.451035 v 0.171404 0.171404 H 28.187241 27.98727 Z M 13.59271,10.847393 c -0.296332,-0.05302 -0.561967,-0.22969 -0.742988,-0.49421 -0.138696,-0.202668 -1.801953,-3.3407198 -1.989775,-3.754091 -0.05905,-0.1299196 -0.112386,-0.2311621 -0.118566,-0.2249825 -0.0064,0.0064 -0.0543,0.2024669 -0.106837,0.4361977 -0.09567,0.4253101 -0.348091,1.3915343 -0.797608,3.053182 l -0.2395815,0.8855958 -1.0628232,0.0073 c -1.0036953,0.0073 -1.0619727,0.0046 -1.0475747,-0.04287 C 7.4951866,10.685815 7.9068,9.2876367 8.4013208,7.6064349 8.8958415,5.9252417 9.3209235,4.4924059 9.345953,4.4223726 9.5924638,3.7326252 10.407057,3.4106967 11.089592,3.7332651 c 0.170736,0.08072 0.345486,0.2291692 0.480305,0.4080966 0.118155,0.1568048 1.828482,3.1927466 2.197169,3.9001098 l 0.211855,0.4064511 0.175353,-0.3493165 c 0.223612,-0.4454489 0.365845,-0.7034597 1.31854,-2.3919112 0.863354,-1.5301017 0.882761,-1.561704 1.077193,-1.7533838 0.455971,-0.4495352 1.257163,-0.4585488 1.733464,-0.019563 0.247169,0.2278437 0.26473,0.2796854 1.214673,3.5869481 0.4874,1.696916 0.894911,3.1206558 0.905579,3.1638678 l 0.01938,0.07853 h -1.072458 c -0.996711,0 -1.0735,-0.0037 -1.087239,-0.05001 -0.0082,-0.02752 -0.144894,-0.532074 -0.303911,-1.1212822 C 17.800487,9.0025942 17.593312,8.2384808 17.499118,7.8937716 17.332212,7.2829522 17.229333,6.8674053 17.159592,6.5223487 L 17.125311,6.3525172 16.649988,7.293849 c -0.26143,0.5177402 -0.726003,1.4101185 -1.032391,1.9830736 -0.518672,0.9699264 -0.570852,1.0557744 -0.757038,1.2454884 -0.254144,0.258944 -0.40636,0.321737 -0.82347,0.339682 -0.159867,0.0073 -0.35982,10e-5 -0.444343,-0.01499 z M 0.22119436,10.709813 c 0.0226984,-0.03291 0.3369416,-0.438492 0.69832219,-0.9013464 L 1.576572,8.9669147 2.3478976,8.9650864 C 3.5117335,8.962344 3.988644,8.9049351 4.3761995,8.720084 4.596208,8.6151392 4.7942156,8.4377481 4.8811882,8.2676606 5.0118939,8.0120723 5.0179456,7.9006369 5.0184758,5.7424566 l 4.937e-4,-2.035446 h 1.0855669 1.0855761 l -1.737e-4,2.0925806 c -1.463e-4,1.678021 -0.00823,2.146342 -0.041411,2.3639747 C 6.954407,9.4417811 6.1180933,10.237497 4.614311,10.574774 3.954685,10.722712 3.7054775,10.739111 1.8780837,10.754844 l -1.6981899,0.01463 z M 24.348215,10.730656 C 23.551631,10.660449 22.76001,10.388616 22.133641,9.9702082 21.677076,9.6652278 21.193589,9.11903 20.951841,8.6351134 20.534036,7.7988002 20.507352,6.6826365 20.885565,5.8639842 c 0.581411,-1.2583877 1.880259,-2.0220171 3.619126,-2.1277664 0.541097,-0.03291 5.254091,-0.039766 5.253259,-0.00731 -3.2e-4,0.011793 -0.305913,0.419944 -0.679116,0.9070235 l -0.678567,0.8855926 -1.999091,0.015266 c -1.90729,0.014535 -2.008377,0.017918 -2.201054,0.073955 -0.725317,0.2107856 -1.213795,0.6537663 -1.370618,1.242966 -0.05375,0.2019091 -0.05256,0.627329 0.0018,0.8379866 0.06737,0.2585227 0.177437,0.4382088 0.412439,0.6730915 0.244902,0.2447917 0.541581,0.4105278 0.929301,0.5191659 0.227387,0.063716 0.24205,0.064082 2.90903,0.079166 l 2.680492,0.015084 -0.690571,0.892736 -0.69057,0.8927441 -1.875652,-0.0037 c -1.031604,-0.0018 -2.002737,-0.01517 -2.158079,-0.0288 z M 5.2760753,2.6504955 c 0,-0.023219 0.1079341,-0.5324856 0.1853355,-0.8744705 C 5.4725635,1.7269349 5.4072015,1.6625419 5.1023586,1.4221377 4.8974144,1.2605061 4.7401708,1.1184009 4.7529324,1.1063615 4.7657306,1.0942947 4.9561214,1.0697953 5.1760943,1.0518779 5.3960671,1.0339605 5.603772,1.012295 5.6376597,1.0038848 5.6869326,0.99154384 5.7236816,0.91895994 5.8215509,0.64094748 5.8888327,0.44980703 5.9649908,0.24538389 5.9908705,0.18665864 L 6.0379495,0.0798946 6.23271,0.53322358 l 0.1947605,0.45333806 0.49389,0.0247736 0.4938899,0.024774 -0.370662,0.3267734 C 6.8068443,1.5724703 6.6794478,1.704017 6.6893115,1.7297139 c 0.042417,0.1105578 0.2420406,0.8745254 0.2313084,0.8852575 -0.0064,0.0064 -0.189047,-0.093874 -0.4049336,-0.2237757 -0.2158957,-0.1299013 -0.4067071,-0.23619 -0.4240303,-0.23619 -0.017369,0 -0.2079152,0.1180722 -0.4235275,0.2623805 -0.2156124,0.1442992 -0.3920258,0.2491984 -0.3920258,0.233091 z"
       id="path1" /></g></svg>
