<?xml version="1.0" encoding="UTF-8" standalone="no"?>
<!-- Created with Inkscape (http://www.inkscape.org/) -->

<svg
   width="30"
   height="13"
   viewBox="0 0 7.9374998 3.4395834"
   version="1.1"
   id="svg1"
   xml:space="preserve"
   sodipodi:docname="jmc.svg"
   xmlns:inkscape="http://www.inkscape.org/namespaces/inkscape"
   xmlns:sodipodi="http://sodipodi.sourceforge.net/DTD/sodipodi-0.dtd"
   xmlns:xlink="http://www.w3.org/1999/xlink"
   xmlns="http://www.w3.org/2000/svg"
   xmlns:svg="http://www.w3.org/2000/svg"><sodipodi:namedview
     id="namedview1"
     pagecolor="#ffffff"
     bordercolor="#000000"
     borderopacity="0.25"
     inkscape:showpageshadow="2"
     inkscape:pageopacity="0.0"
     inkscape:pagecheckerboard="0"
     inkscape:deskcolor="#d1d1d1"
     inkscape:document-units="mm" /><defs
     id="defs1" /><g
     inkscape:label="Layer 1"
     inkscape:groupmode="layer"
     id="layer1"><path
       style="fill:#000000"
       d="M 0.8051308,3.3563851 C 0.712742,3.3455561 0.6622971,3.3109671 0.6490915,3.2493913 0.6460115,3.2350103 0.6434815,3.1792393 0.6434815,3.125456 V 3.027669 h 0.050349 0.050349 v 0.1057026 c 0,0.1019885 4.19e-4,0.1061882 0.011925,0.1195253 0.015257,0.017686 0.041562,0.023583 0.1058909,0.023741 0.064347,1.578e-4 0.091998,-0.00925 0.1027438,-0.034974 0.00535,-0.012812 0.00734,-0.044111 0.00734,-0.115777 v -0.098218 h 0.047699 0.047699 v 0.1129073 c 0,0.1102045 -3.214e-4,0.1135523 -0.013425,0.1398483 -0.031435,0.063081 -0.12228118,0.090804 -0.24891948,0.075961 z m 2.7551832,1.898e-4 c -0.01721,-0.00736 -0.03362,-0.032319 -0.07938,-0.1207817 -0.02297,-0.044396 -0.04354,-0.080767 -0.04573,-0.080824 -0.0022,-5.68e-5 -0.004,0.00405 -0.004,0.00912 0,0.00508 -0.01106,0.050389 -0.02457,0.1006982 l -0.02457,0.09147 h -0.04698 c -0.02584,0 -0.04698,-0.00133 -0.04698,-0.00295 0,-0.011317 0.08732,-0.2980722 0.09376,-0.3078991 0.01221,-0.018643 0.04256,-0.02602 0.06627,-0.016113 0.02099,0.00877 0.02889,0.020659 0.09868,0.1485981 l 0.04003,0.073383 0.01286,-0.025683 c 0.02981,-0.059539 0.09361,-0.1698469 0.105904,-0.1830981 0.0073,-0.00787 0.01985,-0.015761 0.02788,-0.017525 0.02031,-0.00446 0.05056,0.00944 0.05974,0.02745 0.0063,0.012332 0.08846,0.2920141 0.08846,0.3010695 0,0.00152 -0.0213,0.00277 -0.04734,0.00277 -0.04046,0 -0.04776,-0.00135 -0.05021,-0.00927 -0.0016,-0.0051 -0.01358,-0.049536 -0.02667,-0.098744 -0.01309,-0.049208 -0.02482,-0.090485 -0.02606,-0.091726 -0.0012,-0.00124 -0.02292,0.037827 -0.04818,0.086819 -0.02526,0.048992 -0.05139,0.094621 -0.05807,0.1013971 -0.01344,0.013632 -0.04655,0.019674 -0.06488,0.011841 z m 0.838152,-2.026e-4 c -0.0058,-0.00249 -0.05692,-0.046456 -0.113533,-0.097712 -0.05661,-0.051257 -0.104908,-0.093194 -0.107323,-0.093194 -0.0024,0 -0.0044,0.042929 -0.0044,0.095398 v 0.095398 H 4.13081 4.08841 V 3.2102521 c 0,-0.1656486 0.0014,-0.1725228 0.0358,-0.1827881 0.01337,-0.00398 0.02416,-0.00422 0.03309,-7.258e-4 0.0073,0.00285 0.05959,0.047157 0.116218,0.098456 0.05663,0.051299 0.104928,0.093271 0.107323,0.093271 0.0024,0 0.0044,-0.042929 0.0044,-0.095398 v -0.095398 h 0.0424 0.0424 v 0.1460106 c 0,0.1618982 -0.0017,0.1712871 -0.03243,0.1820089 -0.01947,0.00679 -0.02459,0.00688 -0.03912,6.842e-4 z m 0.609489,0 c -0.0058,-0.00249 -0.05692,-0.046456 -0.113532,-0.097712 -0.05661,-0.051257 -0.104909,-0.093194 -0.107324,-0.093194 -0.0024,0 -0.0044,0.042929 -0.0044,0.095398 v 0.095398 h -0.0424 -0.0424 V 3.2102521 c 0,-0.1656486 0.0014,-0.1725228 0.0358,-0.1827881 0.01337,-0.00398 0.02416,-0.00422 0.03309,-7.258e-4 0.0073,0.00285 0.05959,0.047157 0.116218,0.098456 0.05663,0.051299 0.104928,0.093271 0.107323,0.093271 0.0024,0 0.0043,-0.042929 0.0043,-0.095398 v -0.095398 h 0.0424 0.0424 v 0.1460106 c 0,0.1618982 -0.0017,0.1712871 -0.03243,0.1820089 -0.01947,0.00679 -0.02459,0.00688 -0.03912,6.842e-4 z M 6.405398,3.3562025 C 6.287839,3.3397725 6.238001,3.2909225 6.237837,3.1919656 6.237708,3.1135236 6.266897,3.0707127 6.338876,3.0437825 c 0.07916,-0.029617 0.225572,-0.024269 0.294209,0.010747 0.02878,0.014682 0.05567,0.044619 0.0652,0.072593 0.0047,0.013722 0.0083,0.041996 0.0083,0.064843 0,0.08692 -0.03698,0.1333162 -0.124413,0.1560895 -0.03756,0.00978 -0.133442,0.014202 -0.176764,0.00815 z m 0.14992,-0.085238 c 0.01307,-0.00329 0.02956,-0.012614 0.03812,-0.021548 0.01397,-0.014582 0.01509,-0.018834 0.01509,-0.057451 0,-0.038616 -0.0011,-0.042869 -0.01509,-0.057451 -0.02005,-0.020926 -0.04857,-0.027348 -0.121445,-0.027348 -0.109283,0 -0.136373,0.016845 -0.136373,0.084798 0,0.068016 0.02505,0.083786 0.134086,0.084429 0.03442,2.03e-4 0.07294,-0.00224 0.08561,-0.00543 z m -6.2795313,0.078749 c 0.00256,-0.00442 0.016578,-0.023773 0.031153,-0.043009 l 0.026499,-0.034975 0.051844,-1.32e-4 c 0.05554,-1.414e-4 0.07875,-0.0065 0.096553,-0.026444 0.00968,-0.010849 0.010749,-0.020758 0.01233,-0.1146794 l 0.00173,-0.1028039 h 0.047294 0.047294 v 0.1040582 c 0,0.1230244 -0.00325,0.1379425 -0.037604,0.1724409 -0.037397,0.037557 -0.073336,0.047175 -0.1896452,0.050749 -0.081316,0.0025 -0.091557,0.00189 -0.087448,-0.0052 z M 1.131075,3.2714642 v -0.084798 h 0.1503325 c 0.1440623,0 0.150915,-4.581e-4 0.1642971,-0.010984 0.00926,-0.00728 0.013965,-0.016082 0.013965,-0.026115 0,-0.010033 -0.0047,-0.018831 -0.013965,-0.026115 -0.013382,-0.010527 -0.020235,-0.010985 -0.164311,-0.010985 H 1.1310472 l 0.033138,-0.042783 0.033138,-0.042783 0.1271977,0.00217 c 0.1453787,0.00248 0.1640449,0.00654 0.2017835,0.043949 0.032512,0.032227 0.042134,0.087207 0.022211,0.1269001 -0.011042,0.021999 -0.038965,0.045473 -0.067374,0.05664 -0.026143,0.010276 -0.041974,0.01181 -0.1420453,0.013764 l -0.112623,0.0022 v 0.041872 0.041872 h -0.047699 -0.047699 z m 0.4822913,-0.079499 v -0.164297 h 0.050349 0.050349 v 0.1642974 0.1642971 h -0.050349 -0.050349 z m 0.2861949,0.042545 V 3.1127581 l -0.074664,-0.00147 -0.074664,-0.00147 0.03094,-0.040944 0.03094,-0.040944 0.1840229,-1.302e-4 0.1840229,-1.303e-4 -0.03247,0.042399 -0.03247,0.042399 H 2.057739 2.000259 V 3.2343649 3.3562627 H 1.94991 1.899561 Z m 0.3126944,-0.042545 v -0.164297 h 0.1854966 c 0.1020232,0 0.1854967,0.0013 0.1854967,0.0029 0,0.00159 -0.013714,0.02066 -0.030474,0.04237 l -0.030474,0.039473 -0.1046731,2.97e-5 -0.1046731,2.97e-5 v 0.021105 0.021105 l 0.1268042,0.00142 0.1268043,0.00142 -0.027424,0.035774 -0.027424,0.035774 h -0.099381 -0.099381 v 0.0212 0.0212 h 0.1351475 c 0.074331,0 0.1351476,0.00127 0.1351476,0.00282 0,0.00155 -0.013406,0.020629 -0.029792,0.042399 l -0.029791,0.039575 H 2.3679606 2.2122556 Z m 0.4133925,0.079722 v -0.084576 l 0.1594716,-0.00155 0.1594716,-0.00155 0.010125,-0.012512 c 0.01281,-0.015834 0.01281,-0.028041 0,-0.043875 l -0.010125,-0.012512 -0.1591531,-0.00155 -0.1591531,-0.00155 0.0323,-0.042178 0.0323,-0.042178 0.1065037,1.05e-4 c 0.058577,5.77e-5 0.1231985,0.00249 0.1436031,0.0054 0.048506,0.00693 0.089638,0.027093 0.1060361,0.051988 0.03642,0.055293 0.01171,0.1348802 -0.04799,0.1545848 l -0.01951,0.00644 0.04466,0.045763 c 0.06869,0.070386 0.0692,0.064313 -0.0054,0.064313 H 2.954878 L 2.918768,3.311464 2.882659,3.266666 2.801835,3.2664146 2.721011,3.2661631 v 0.045049 0.045049 H 2.673312 2.625613 Z M 3.924125,3.1919652 v -0.164297 h 0.05035 0.05035 v 0.164297 0.1642971 h -0.05035 -0.05035 z m 0.609489,0 v -0.164297 h 0.05035 0.05035 v 0.164297 0.1642971 h -0.05035 -0.05035 z m 0.751901,0.1589046 c -0.05963,-0.010075 -0.112082,-0.0465 -0.135426,-0.09404 -0.01917,-0.039045 -0.02064,-0.091692 -0.0036,-0.1284636 0.02286,-0.049288 0.07523,-0.084964 0.139697,-0.095166 0.03947,-0.00625 0.272082,-0.00757 0.269412,-0.00154 -9.71e-4,0.0022 -0.01482,0.021276 -0.03078,0.042399 l -0.02901,0.038405 h -0.09784 c -0.08812,0 -0.100088,0.00109 -0.12051,0.010976 -0.05938,0.028745 -0.05964,0.1107383 -4.39e-4,0.1376133 0.01881,0.00854 0.03499,0.010194 0.100589,0.010292 l 0.07817,1.164e-4 v -0.023718 -0.023718 l -0.08442,-0.00146 -0.08442,-0.00146 0.02943,-0.035774 0.02943,-0.035774 H 5.448497 5.551194 V 3.2529145 3.3562627 L 5.430623,3.3556393 c -0.06631,-3.428e-4 -0.131614,-0.00249 -0.145108,-0.00477 z m 0.651888,0 c -0.05963,-0.010075 -0.112081,-0.0465 -0.135426,-0.09404 -0.01917,-0.039045 -0.02064,-0.091692 -0.0036,-0.1284636 0.02286,-0.049288 0.07523,-0.084964 0.139698,-0.095166 0.03578,-0.00566 0.264995,-0.00783 0.264995,-0.00251 0,0.00166 -0.01364,0.020744 -0.03031,0.042399 L 6.14245,3.1124622 H 6.04723 c -0.08547,0 -0.09754,0.00112 -0.11789,0.010976 -0.02849,0.013792 -0.04428,0.038463 -0.04425,0.069148 2.6e-5,0.030834 0.01469,0.053586 0.04353,0.06755 0.02188,0.010591 0.03154,0.011323 0.149357,0.011323 0.06928,0 0.125171,0.0018 0.124199,0.00399 -9.71e-4,0.0022 -0.01482,0.021277 -0.03078,0.042399 l -0.02901,0.038415 -0.09024,-6.234e-4 C 6.002516,3.355297 5.950869,3.3531498 5.937375,3.3508698 Z m 0.827471,-0.079183 v -0.084575 l 0.159471,-0.00155 0.159472,-0.00155 0.01013,-0.012512 c 0.0056,-0.00688 0.01012,-0.016753 0.01012,-0.021937 0,-0.00518 -0.0046,-0.015056 -0.01012,-0.021937 l -0.01013,-0.012512 -0.159153,-0.00155 -0.159153,-0.00155 0.0323,-0.042178 0.0323,-0.042178 0.106504,1.05e-4 c 0.05858,5.77e-5 0.123199,0.00249 0.143603,0.0054 0.04851,0.00693 0.08964,0.027093 0.106036,0.051988 0.03642,0.055293 0.01171,0.1348802 -0.04799,0.1545848 l -0.01951,0.00644 0.04466,0.045763 c 0.06869,0.070386 0.0692,0.064313 -0.0054,0.064313 h -0.06391 l -0.03611,-0.044798 -0.03611,-0.044798 -0.08082,-2.514e-4 -0.08082,-2.515e-4 v 0.045049 0.045049 h -0.0477 -0.0477 z m 0.498191,-2.23e-4 v -0.084798 h 0.150333 c 0.144062,0 0.150915,-4.581e-4 0.164297,-0.010984 0.0093,-0.00728 0.01396,-0.016082 0.01396,-0.026115 0,-0.010033 -0.0047,-0.018831 -0.01396,-0.026115 -0.01338,-0.010527 -0.02024,-0.010985 -0.164311,-0.010985 H 7.263037 l 0.03314,-0.042783 0.03314,-0.042783 0.127198,0.00217 c 0.145379,0.00248 0.164045,0.00654 0.201783,0.043949 0.03251,0.032227 0.04213,0.087207 0.02221,0.1269001 -0.01104,0.021999 -0.03897,0.045473 -0.06738,0.05664 -0.02614,0.010276 -0.04197,0.01181 -0.142045,0.013764 l -0.112623,0.0022 v 0.041872 0.041872 H 7.31076 7.26306 Z M 3.607523,2.6486506 C 3.541133,2.6342266 3.474444,2.5853136 3.430556,2.5188471 3.395626,2.4659421 2.970706,1.6616411 2.9300791,1.5715199 c -0.010841,-0.024048 -0.021382,-0.043724 -0.023425,-0.043724 -0.00204,0 -0.00675,0.017291 -0.010471,0.038424 -0.01103,0.062726 -0.088643,0.3655194 -0.1853087,0.7229512 -0.04979,0.1841032 -0.090527,0.3361442 -0.090527,0.3378689 0,0.00172 -0.1204403,0.00314 -0.2676452,0.00314 -0.1472048,0 -0.2676452,-6.518e-4 -0.2676452,-0.00145 0,-7.966e-4 0.1048603,-0.3579439 0.2330228,-0.7936607 0.2572956,-0.87473258 0.2504432,-0.85453208 0.3101196,-0.91420858 0.096506,-0.096506 0.2675688,-0.1192753 0.3841636,-0.051134 0.03497,0.020439 0.09156,0.076051 0.115642,0.1136478 0.02134,0.033312 0.338875,0.59369128 0.442452,0.78082528 0.03082,0.05569 0.07664,0.1424006 0.101822,0.1926905 0.02518,0.05029 0.04651,0.090584 0.0474,0.089542 8.92e-4,-0.00104 0.02777,-0.05317 0.05973,-0.1158419 C 3.811369,1.8679194 3.894767,1.7152818 3.96474,1.5913965 4.03471,1.4675112 4.136903,1.2862545 4.191827,1.1886038 4.305379,0.98672052 4.319895,0.96381662 4.359396,0.92421582 c 0.05658,-0.05672 0.108648,-0.081879 0.189816,-0.091713 0.06312,-0.00765 0.125221,0.00337 0.183088,0.032493 0.06382,0.032115 0.105299,0.075475 0.137402,0.14364098 0.01249,0.026513 0.09327,0.2994053 0.245476,0.829205 l 0.226863,0.7896857 -0.269901,0.00137 c -0.148445,7.554e-4 -0.270491,7.554e-4 -0.271213,0 -0.0015,-0.0016 -0.167969,-0.61438 -0.217744,-0.8016573 -0.01859,-0.069959 -0.04226,-0.1652992 -0.0526,-0.2118677 -0.01034,-0.046569 -0.01984,-0.085715 -0.02112,-0.086992 -0.0013,-0.00128 -0.03069,0.055904 -0.06537,0.1270693 -0.105325,0.2161376 -0.411531,0.7962355 -0.455747,0.8633971 -0.04448,0.067561 -0.110544,0.1154529 -0.179387,0.1300412 -0.04504,0.00954 -0.157017,0.00941 -0.201434,-2.377e-4 z m -3.3287104,-0.05433 c 0.01547,-0.01972 0.095732,-0.1220709 0.1783603,-0.2274454 L 0.607406,2.1752849 0.8520158,2.1729949 c 0.2999898,-0.00281 0.3598283,-0.010291 0.4573753,-0.057141 0.076058,-0.03653 0.1216086,-0.089416 0.1458727,-0.1693656 l 0.012064,-0.039749 0.00167,-0.5233656 0.00167,-0.52336548 h 0.2729807 0.2729808 l -0.00192,0.54721508 c -0.00189,0.537609 -0.00212,0.5481455 -0.013401,0.6002142 C 1.9318652,2.3280497 1.721634,2.5126191 1.3377712,2.5899706 1.1727844,2.6232168 1.0489541,2.629943 0.5994568,2.6300741 L 0.2506853,2.6301758 Z M 6.377981,2.6265846 C 6.109882,2.6115874 5.856094,2.5143979 5.678317,2.3586446 5.54502,2.2418604 5.447944,2.0812622 5.410425,1.9154552 5.353725,1.6648861 5.410506,1.4142392 5.56728,1.2230511 5.717998,1.0392485 5.941552,0.92180802 6.230598,0.87458792 c 0.06944,-0.011345 0.0813,-0.011549 0.766578,-0.013238 0.678898,-0.00167 0.695869,-0.00147 0.688987,0.00819 -0.0039,0.00545 -0.08217,0.1080841 -0.173986,0.22808208 l -0.166931,0.2181782 -0.461108,1.49e-5 c -0.473694,1.53e-5 -0.516922,0.00159 -0.595355,0.021637 -0.232878,0.059532 -0.375699,0.243873 -0.352299,0.4547162 0.0103,0.092784 0.04095,0.1595258 0.104112,0.2266721 0.05981,0.063585 0.144417,0.1112506 0.239337,0.134836 0.02332,0.00579 0.04717,0.012146 0.053,0.014115 0.0058,0.00197 0.314386,0.00485 0.685681,0.00641 l 0.675081,0.00283 -0.17424,0.226232 -0.17424,0.226232 -0.469042,-6.415e-4 C 6.618199,2.6285036 6.394013,2.6274839 6.377981,2.6265846 Z M 1.6609022,0.51418891 1.6213162,0.41746561 1.517968,0.41128921 c -0.056841,-0.0034 -0.1053078,-0.00638 -0.107703,-0.00663 -0.0024,-2.466e-4 0.032863,-0.031908 0.078353,-0.070358 0.045489,-0.03845 0.081654,-0.072655 0.080367,-0.07601 -0.00663,-0.017265 -0.051147,-0.1949098 -0.04931,-0.1967475 0.00118,-0.00118 0.0422,0.022615 0.091154,0.052878 l 0.089007,0.05503 0.087938,-0.0568068 c 0.048366,-0.031244 0.088591,-0.054144 0.089389,-0.05089 7.983e-4,0.00325 -0.00944,0.049955 -0.022742,0.1037786 -0.023934,0.096813 -0.02408,0.097949 -0.013649,0.1059981 0.0058,0.00447 0.042738,0.034371 0.082086,0.066435 0.06219,0.050679 0.070019,0.058751 0.059897,0.061758 -0.0064,0.0019 -0.053381,0.00627 -0.1043929,0.00971 -0.051011,0.00344 -0.094241,0.00784 -0.096065,0.00979 -0.00182,0.00195 -0.019586,0.045872 -0.039472,0.097612 -0.019885,0.05174 -0.037546,0.094073 -0.039246,0.094073 -0.0017,0 -0.020905,-0.043526 -0.042677,-0.096723 z"
       id="path1" /><path
       style="fill:#abdc93;stroke-width:0.264583"
       d="M 0.31867345,3.9051404 7.4159786,3.8713301"
       id="path2" /><use
       id="use2"
       inkscape:spray-origin="#path2"
       xlink:href="#path2"
       transform="translate(-3.3990681,0.01864359)" /><use
       id="use3"
       inkscape:spray-origin="#path2"
       xlink:href="#path2"
       transform="translate(3.6272747,-0.21917996)" /><use
       id="use4"
       inkscape:spray-origin="#path2"
       xlink:href="#path2"
       transform="translate(3.5954385,0.01819668)" /><use
       id="use5"
       inkscape:spray-origin="#path2"
       xlink:href="#path2"
       transform="translate(3.7331472,-0.09835304)" /><use
       id="use6"
       inkscape:spray-origin="#path2"
       xlink:href="#path2"
       transform="translate(3.6702492,0.10707576)" /><use
       id="use7"
       inkscape:spray-origin="#path2"
       xlink:href="#path2"
       transform="translate(3.7606653,0.25531698)" /><use
       id="use8"
       inkscape:spray-origin="#path2"
       xlink:href="#path2"
       transform="translate(3.7690322,0.09809977)" /><use
       id="use9"
       inkscape:spray-origin="#path2"
       xlink:href="#path2"
       transform="translate(3.6190496,-0.19847047)" /><use
       id="use10"
       inkscape:spray-origin="#path2"
       xlink:href="#path2"
       transform="translate(3.4829596,0.04893103)" /><use
       id="use11"
       inkscape:spray-origin="#path2"
       xlink:href="#path2"
       transform="translate(3.4944351,0.05490713)" /><use
       id="use12"
       inkscape:spray-origin="#path2"
       xlink:href="#path2"
       transform="translate(3.5033724,-0.05117993)" /><use
       id="use13"
       inkscape:spray-origin="#path2"
       xlink:href="#path2"
       transform="translate(3.4835126,0.04566933)" /><use
       id="use14"
       inkscape:spray-origin="#path2"
       xlink:href="#path2"
       transform="translate(3.0464224,0.15479817)" /><use
       id="use15"
       inkscape:spray-origin="#path2"
       xlink:href="#path2"
       transform="translate(2.8364438,0.15343567)" /><use
       id="use16"
       inkscape:spray-origin="#path2"
       xlink:href="#path2"
       transform="translate(2.9481791,0.06389768)" /><use
       id="use17"
       inkscape:spray-origin="#path2"
       xlink:href="#path2"
       transform="translate(3.0620535,-0.1379683)" /><use
       id="use18"
       inkscape:spray-origin="#path2"
       xlink:href="#path2"
       transform="translate(2.7688817,0.1355507)" /><use
       id="use19"
       inkscape:spray-origin="#path2"
       xlink:href="#path2"
       transform="translate(2.6256039,0.03522165)" /><use
       id="use20"
       inkscape:spray-origin="#path2"
       xlink:href="#path2"
       transform="translate(2.5975085,0.16819789)" /><use
       id="use21"
       inkscape:spray-origin="#path2"
       xlink:href="#path2"
       transform="translate(2.281064,-0.15127006)" /><use
       id="use22"
       inkscape:spray-origin="#path2"
       xlink:href="#path2"
       transform="translate(2.3447621,-0.05483244)" /><use
       id="use23"
       inkscape:spray-origin="#path2"
       xlink:href="#path2"
       transform="translate(2.176902,-0.02057854)" /><use
       id="use24"
       inkscape:spray-origin="#path2"
       xlink:href="#path2"
       transform="translate(1.9089008,-0.09222575)" /><use
       id="use25"
       inkscape:spray-origin="#path2"
       xlink:href="#path2"
       transform="translate(1.8590448,0.04092919)" /><use
       id="use26"
       inkscape:spray-origin="#path2"
       xlink:href="#path2"
       transform="translate(1.6807529,0.10236128)" /><use
       id="use27"
       inkscape:spray-origin="#path2"
       xlink:href="#path2"
       transform="translate(1.5157224,0.02451549)" /><use
       id="use28"
       inkscape:spray-origin="#path2"
       xlink:href="#path2"
       transform="translate(1.3256484,0.11521069)" /><use
       id="use29"
       inkscape:spray-origin="#path2"
       xlink:href="#path2"
       transform="translate(1.1902003,0.11533996)" /><use
       id="use30"
       inkscape:spray-origin="#path2"
       xlink:href="#path2"
       transform="translate(0.84240138,-0.05302835)" /><use
       id="use31"
       inkscape:spray-origin="#path2"
       xlink:href="#path2"
       transform="translate(0.7952758,0.14043105)" /><use
       id="use32"
       inkscape:spray-origin="#path2"
       xlink:href="#path2"
       transform="translate(0.75270368,-0.01700064)" /><use
       id="use33"
       inkscape:spray-origin="#path2"
       xlink:href="#path2"
       transform="translate(0.89722445,-0.04466598)" /><use
       id="use34"
       inkscape:spray-origin="#path2"
       xlink:href="#path2"
       transform="translate(0.75731879,-0.24177859)" /><use
       id="use35"
       inkscape:spray-origin="#path2"
       xlink:href="#path2"
       transform="translate(0.3249898,-0.20157163)" /><use
       id="use36"
       inkscape:spray-origin="#path2"
       xlink:href="#path2"
       transform="translate(0.48764156,0.0439902)" /><use
       id="use37"
       inkscape:spray-origin="#path2"
       xlink:href="#path2"
       transform="translate(0.14275342,-0.20539856)" /><use
       id="use38"
       inkscape:spray-origin="#path2"
       xlink:href="#path2"
       transform="translate(-0.12126175,0.10261275)" /><use
       id="use39"
       inkscape:spray-origin="#path2"
       xlink:href="#path2"
       transform="translate(-0.0037859,0.17116753)" /><use
       id="use40"
       inkscape:spray-origin="#path2"
       xlink:href="#path2"
       transform="translate(-0.15309766,-0.05654373)" /><use
       id="use41"
       inkscape:spray-origin="#path2"
       xlink:href="#path2"
       transform="translate(-0.30309905,0.14966782)" /><use
       id="use42"
       inkscape:spray-origin="#path2"
       xlink:href="#path2"
       transform="translate(-0.07855586,-0.18387194)" /><use
       id="use43"
       inkscape:spray-origin="#path2"
       xlink:href="#path2"
       transform="translate(-0.2672105,0.1675619)" /><use
       id="use44"
       inkscape:spray-origin="#path2"
       xlink:href="#path2"
       transform="translate(-0.59116241,-0.19792631)" /><use
       id="use45"
       inkscape:spray-origin="#path2"
       xlink:href="#path2"
       transform="translate(-0.74245166,0.11908821)" /><use
       id="use46"
       inkscape:spray-origin="#path2"
       xlink:href="#path2"
       transform="translate(-0.64688155,0.19029849)" /><use
       id="use47"
       inkscape:spray-origin="#path2"
       xlink:href="#path2"
       transform="translate(-0.43867048,-0.07094665)" /><use
       id="use48"
       inkscape:spray-origin="#path2"
       xlink:href="#path2"
       transform="translate(-0.67434728,-0.02729673)" /><use
       id="use49"
       inkscape:spray-origin="#path2"
       xlink:href="#path2"
       transform="translate(-0.68198219,-0.08275354)" /><use
       id="use50"
       inkscape:spray-origin="#path2"
       xlink:href="#path2"
       transform="translate(-0.72355318,0.10707858)" /><use
       id="use51"
       inkscape:spray-origin="#path2"
       xlink:href="#path2"
       transform="translate(-1.1367727,-0.14787075)" /><use
       id="use52"
       inkscape:spray-origin="#path2"
       xlink:href="#path2"
       transform="translate(-1.3400541,-0.17291356)" /><use
       id="use53"
       inkscape:spray-origin="#path2"
       xlink:href="#path2"
       transform="translate(-1.8010489,-0.13932914)" /><use
       id="use54"
       inkscape:spray-origin="#path2"
       xlink:href="#path2"
       transform="translate(-1.6859514,-0.11639526)" /><use
       id="use55"
       inkscape:spray-origin="#path2"
       xlink:href="#path2"
       transform="translate(-1.8007781,-0.01277317)" /><use
       id="use56"
       inkscape:spray-origin="#path2"
       xlink:href="#path2"
       transform="translate(-1.9716113,0.12988264)" /><use
       id="use57"
       inkscape:spray-origin="#path2"
       xlink:href="#path2"
       transform="translate(-2.1679685,-0.15234839)" /><use
       id="use58"
       inkscape:spray-origin="#path2"
       xlink:href="#path2"
       transform="translate(-2.0985764,0.10614258)" /><use
       id="use59"
       inkscape:spray-origin="#path2"
       xlink:href="#path2"
       transform="translate(-2.0087617,0.07207147)" /><use
       id="use60"
       inkscape:spray-origin="#path2"
       xlink:href="#path2"
       transform="translate(-2.2547696,-0.07949122)" /><use
       id="use61"
       inkscape:spray-origin="#path2"
       xlink:href="#path2"
       transform="translate(-2.3881454,0.00637616)" /><use
       id="use62"
       inkscape:spray-origin="#path2"
       xlink:href="#path2"
       transform="translate(-2.6759065,-0.05780072)" /><use
       id="use63"
       inkscape:spray-origin="#path2"
       xlink:href="#path2"
       transform="translate(-2.5174113,-0.17172153)" /><use
       id="use64"
       inkscape:spray-origin="#path2"
       xlink:href="#path2"
       transform="translate(-2.6367909,-0.04960134)" /><use
       id="use65"
       inkscape:spray-origin="#path2"
       xlink:href="#path2"
       transform="translate(-2.6326912,-0.03698485)" /><use
       id="use66"
       inkscape:spray-origin="#path2"
       xlink:href="#path2"
       transform="translate(-2.9113472,-0.09582654)" /><use
       id="use67"
       inkscape:spray-origin="#path2"
       xlink:href="#path2"
       transform="translate(-2.7323879,0.07815749)" /><use
       id="use68"
       inkscape:spray-origin="#path2"
       xlink:href="#path2"
       transform="translate(-2.9471854,0.01972066)" /><use
       id="use69"
       inkscape:spray-origin="#path2"
       xlink:href="#path2"
       transform="translate(-2.8917245,0.0065164)" /><use
       id="use70"
       inkscape:spray-origin="#path2"
       xlink:href="#path2"
       transform="translate(-3.1015716,0.05707995)" /><use
       id="use71"
       inkscape:spray-origin="#path2"
       xlink:href="#path2"
       transform="translate(-2.843539,-0.14118757)" /><use
       id="use72"
       inkscape:spray-origin="#path2"
       xlink:href="#path2"
       transform="translate(-3.3199705,-0.14191046)" /><use
       id="use73"
       inkscape:spray-origin="#path2"
       xlink:href="#path2"
       transform="translate(-3.1232973,-0.02286684)" /><use
       id="use74"
       inkscape:spray-origin="#path2"
       xlink:href="#path2"
       transform="translate(-3.4366436,0.22915914)" /><use
       id="use75"
       inkscape:spray-origin="#path2"
       xlink:href="#path2"
       transform="translate(-3.4611175,-0.10418351)" /><use
       id="use76"
       inkscape:spray-origin="#path2"
       xlink:href="#path2"
       transform="translate(-3.2272392,0.1401941)" /><use
       id="use77"
       inkscape:spray-origin="#path2"
       xlink:href="#path2"
       transform="translate(-3.3783964,-0.06052742)" /><use
       id="use78"
       inkscape:spray-origin="#path2"
       xlink:href="#path2"
       transform="translate(-3.3917679,0.13045749)" /><use
       id="use79"
       inkscape:spray-origin="#path2"
       xlink:href="#path2"
       transform="translate(-3.2701447,-0.04309417)" /><use
       id="use80"
       inkscape:spray-origin="#path2"
       xlink:href="#path2"
       transform="translate(-3.0448802,-0.16425411)" /><use
       id="use81"
       inkscape:spray-origin="#path2"
       xlink:href="#path2"
       transform="translate(-2.6773272,-0.21457187)" /><use
       id="use82"
       inkscape:spray-origin="#path2"
       xlink:href="#path2"
       transform="translate(-2.6034814,0.11510904)" /><use
       id="use83"
       inkscape:spray-origin="#path2"
       xlink:href="#path2"
       transform="translate(-2.5460559,-0.10022114)" /><use
       id="use84"
       inkscape:spray-origin="#path2"
       xlink:href="#path2"
       transform="translate(-2.026924,0.11926942)" /><use
       id="use85"
       inkscape:spray-origin="#path2"
       xlink:href="#path2"
       transform="translate(-1.6723069,-0.06448922)" /><use
       id="use86"
       inkscape:spray-origin="#path2"
       xlink:href="#path2"
       transform="translate(-1.8280142,0.03505061)" /><use
       id="use87"
       inkscape:spray-origin="#path2"
       xlink:href="#path2"
       transform="translate(-1.6128271,0.11979008)" /><use
       id="use88"
       inkscape:spray-origin="#path2"
       xlink:href="#path2"
       transform="translate(-1.4512971,-0.15593164)" /><use
       id="use89"
       inkscape:spray-origin="#path2"
       xlink:href="#path2"
       transform="translate(-1.1629287,0.0700669)" /><use
       id="use90"
       inkscape:spray-origin="#path2"
       xlink:href="#path2"
       transform="translate(-1.0129393,-0.03216623)" /><use
       id="use91"
       inkscape:spray-origin="#path2"
       xlink:href="#path2"
       transform="translate(-0.9487262,-0.14890861)" /><use
       id="use92"
       inkscape:spray-origin="#path2"
       xlink:href="#path2"
       transform="translate(-0.39797743,0.08597342)" /><use
       id="use93"
       inkscape:spray-origin="#path2"
       xlink:href="#path2"
       transform="translate(0.56684995,-0.22754449)" /><use
       id="use94"
       inkscape:spray-origin="#path2"
       xlink:href="#path2"
       transform="translate(1.2623227,-0.1530736)" /><use
       id="use95"
       inkscape:spray-origin="#path2"
       xlink:href="#path2"
       transform="translate(1.6194451,-0.00280024)" /><use
       id="use96"
       inkscape:spray-origin="#path2"
       xlink:href="#path2"
       transform="translate(1.7969427,-0.03403099)" /><use
       id="use97"
       inkscape:spray-origin="#path2"
       xlink:href="#path2"
       transform="translate(2.1661926,0.03511665)" /><use
       id="use98"
       inkscape:spray-origin="#path2"
       xlink:href="#path2"
       transform="translate(2.3984706,-0.21302898)" /><use
       id="use99"
       inkscape:spray-origin="#path2"
       xlink:href="#path2"
       transform="translate(2.4955722,0.09374043)" /><use
       id="use100"
       inkscape:spray-origin="#path2"
       xlink:href="#path2"
       transform="translate(3.0919783,0.02920128)" /><use
       id="use101"
       inkscape:spray-origin="#path2"
       xlink:href="#path2"
       transform="translate(2.8353821,-0.00173569)" /><use
       id="use102"
       inkscape:spray-origin="#path2"
       xlink:href="#path2"
       transform="translate(2.926786,-0.23716781)" /><use
       id="use103"
       inkscape:spray-origin="#path2"
       xlink:href="#path2"
       transform="translate(3.2160537,-0.03982973)" /><use
       id="use104"
       inkscape:spray-origin="#path2"
       xlink:href="#path2"
       transform="translate(-3.3041015,-0.13839397)" /><use
       id="use105"
       inkscape:spray-origin="#path2"
       xlink:href="#path2"
       transform="translate(-2.9270936,-0.0101127)" /><use
       id="use106"
       inkscape:spray-origin="#path2"
       xlink:href="#path2"
       transform="translate(-2.9733776,0.01542424)" /><use
       id="use107"
       inkscape:spray-origin="#path2"
       xlink:href="#path2"
       transform="translate(-2.6810931,1.0828061e-4)" /><use
       id="use108"
       inkscape:spray-origin="#path2"
       xlink:href="#path2"
       transform="translate(-2.5374891,0.00717101)" /><use
       id="use109"
       inkscape:spray-origin="#path2"
       xlink:href="#path2"
       transform="translate(-2.3666439,-0.01680288)" /><use
       id="use110"
       inkscape:spray-origin="#path2"
       xlink:href="#path2"
       transform="translate(-2.2289081,0.08628609)" /><use
       id="use111"
       inkscape:spray-origin="#path2"
       xlink:href="#path2"
       transform="translate(-2.1190667,0.17965097)" /><use
       id="use112"
       inkscape:spray-origin="#path2"
       xlink:href="#path2"
       transform="translate(-1.6365723,0.18282921)" /><use
       id="use113"
       inkscape:spray-origin="#path2"
       xlink:href="#path2"
       transform="translate(-1.0784266,0.24491342)" /><use
       id="use114"
       inkscape:spray-origin="#path2"
       xlink:href="#path2"
       transform="translate(-0.89216212,0.10607322)" /><use
       id="use115"
       inkscape:spray-origin="#path2"
       xlink:href="#path2"
       transform="translate(-0.9092914,-0.0307118)" /><use
       id="use116"
       inkscape:spray-origin="#path2"
       xlink:href="#path2"
       transform="translate(-0.55310513,-0.11488064)" /><use
       id="use117"
       inkscape:spray-origin="#path2"
       xlink:href="#path2"
       transform="translate(-0.6748133,0.08378757)" /><use
       id="use118"
       inkscape:spray-origin="#path2"
       xlink:href="#path2"
       transform="translate(0.34836724,-0.11754385)" /><use
       id="use119"
       inkscape:spray-origin="#path2"
       xlink:href="#path2"
       transform="translate(0.95416224,0.05910447)" /><use
       id="use120"
       inkscape:spray-origin="#path2"
       xlink:href="#path2"
       transform="translate(1.3625866,0.20032807)" /><use
       id="use121"
       inkscape:spray-origin="#path2"
       xlink:href="#path2"
       transform="translate(1.5089374,0.22652322)" /><use
       id="use122"
       inkscape:spray-origin="#path2"
       xlink:href="#path2"
       transform="translate(1.6961944,-0.06002926)" /><use
       id="use123"
       inkscape:spray-origin="#path2"
       xlink:href="#path2"
       transform="translate(2.1830861,-0.14160927)" /><use
       id="use124"
       inkscape:spray-origin="#path2"
       xlink:href="#path2"
       transform="translate(2.0213904,0.14176728)" /><use
       id="use125"
       inkscape:spray-origin="#path2"
       xlink:href="#path2"
       transform="translate(2.107148,0.21279654)" /><use
       id="use126"
       inkscape:spray-origin="#path2"
       xlink:href="#path2"
       transform="translate(2.3340632,0.05432646)" /><use
       id="use127"
       inkscape:spray-origin="#path2"
       xlink:href="#path2"
       transform="translate(2.2409931,0.02347134)" /><use
       id="use128"
       inkscape:spray-origin="#path2"
       xlink:href="#path2"
       transform="translate(2.4561014,0.06318034)" /><use
       id="use129"
       inkscape:spray-origin="#path2"
       xlink:href="#path2"
       transform="translate(2.4459494,0.04697725)" /><use
       id="use130"
       inkscape:spray-origin="#path2"
       xlink:href="#path2"
       transform="translate(2.6126336,0.03849204)" /><use
       id="use131"
       inkscape:spray-origin="#path2"
       xlink:href="#path2"
       transform="translate(3.0698376,0.04147022)" /><use
       id="use132"
       inkscape:spray-origin="#path2"
       xlink:href="#path2"
       transform="translate(3.0232533,0.08974975)" /><use
       id="use133"
       inkscape:spray-origin="#path2"
       xlink:href="#path2"
       transform="translate(2.8929914,0.01923032)" /><use
       id="use134"
       inkscape:spray-origin="#path2"
       xlink:href="#path2"
       transform="translate(3.0750489,0.07440795)" /><use
       id="use135"
       inkscape:spray-origin="#path2"
       xlink:href="#path2"
       transform="translate(3.2970328,0.02607187)" /><use
       id="use136"
       inkscape:spray-origin="#path2"
       xlink:href="#path2"
       transform="translate(3.2578615,-0.0447808)" /><use
       id="use137"
       inkscape:spray-origin="#path2"
       xlink:href="#path2"
       transform="translate(3.6536373,0.01159818)" /><use
       id="use138"
       inkscape:spray-origin="#path2"
       xlink:href="#path2"
       transform="translate(3.5835695,-0.1551261)" /><use
       id="use139"
       inkscape:spray-origin="#path2"
       xlink:href="#path2"
       transform="translate(3.5073954,0.15449623)" /><use
       id="use140"
       inkscape:spray-origin="#path2"
       xlink:href="#path2"
       transform="translate(3.6157162,0.1476997)" /><use
       id="use141"
       inkscape:spray-origin="#path2"
       xlink:href="#path2"
       transform="translate(3.4823249,0.03836346)" /><use
       id="use142"
       inkscape:spray-origin="#path2"
       xlink:href="#path2"
       transform="translate(3.5098757,0.01927002)" /><use
       id="use143"
       inkscape:spray-origin="#path2"
       xlink:href="#path2"
       transform="translate(3.441404,0.14674799)" /><use
       id="use144"
       inkscape:spray-origin="#path2"
       xlink:href="#path2"
       transform="translate(3.4586324,-0.14230111)" /><use
       id="use145"
       inkscape:spray-origin="#path2"
       xlink:href="#path2"
       transform="translate(3.0574575,-0.15669271)" /><use
       id="use146"
       inkscape:spray-origin="#path2"
       xlink:href="#path2"
       transform="translate(3.2327154,-0.15393095)" /><use
       id="use147"
       inkscape:spray-origin="#path2"
       xlink:href="#path2"
       transform="translate(2.7088996,-0.14583286)" /><use
       id="use148"
       inkscape:spray-origin="#path2"
       xlink:href="#path2"
       transform="translate(2.7719716,-0.21382689)" /><use
       id="use149"
       inkscape:spray-origin="#path2"
       xlink:href="#path2"
       transform="translate(2.6468571,-0.21636995)" /><use
       id="use150"
       inkscape:spray-origin="#path2"
       xlink:href="#path2"
       transform="translate(2.5295817,0.11069842)" /><use
       id="use151"
       inkscape:spray-origin="#path2"
       xlink:href="#path2"
       transform="translate(2.2773285,0.12194376)" /><use
       id="use152"
       inkscape:spray-origin="#path2"
       xlink:href="#path2"
       transform="translate(1.4930119,-0.09060623)" /><use
       id="use153"
       inkscape:spray-origin="#path2"
       xlink:href="#path2"
       transform="translate(1.7932158,0.08732375)" /><use
       id="use154"
       inkscape:spray-origin="#path2"
       xlink:href="#path2"
       transform="translate(1.5550833,0.16161701)" /><use
       id="use155"
       inkscape:spray-origin="#path2"
       xlink:href="#path2"
       transform="translate(1.1137723,-0.08410435)" /><use
       id="use156"
       inkscape:spray-origin="#path2"
       xlink:href="#path2"
       transform="translate(0.85109705,0.03940542)" /><use
       id="use157"
       inkscape:spray-origin="#path2"
       xlink:href="#path2"
       transform="translate(0.36996204,0.16881811)" /><use
       id="use158"
       inkscape:spray-origin="#path2"
       xlink:href="#path2"
       transform="translate(0.17867449,0.01318052)" /><use
       id="use159"
       inkscape:spray-origin="#path2"
       xlink:href="#path2"
       transform="translate(-0.0276978,-0.11085253)" /><use
       id="use160"
       inkscape:spray-origin="#path2"
       xlink:href="#path2"
       transform="translate(-0.24993375,0.01457621)" /><use
       id="use161"
       inkscape:spray-origin="#path2"
       xlink:href="#path2"
       transform="translate(-0.62085457,0.10962493)" /><use
       id="use162"
       inkscape:spray-origin="#path2"
       xlink:href="#path2"
       transform="translate(-0.84402607,-0.0542716)" /><use
       id="use163"
       inkscape:spray-origin="#path2"
       xlink:href="#path2"
       transform="translate(-1.3836758,-0.04513587)" /><use
       id="use164"
       inkscape:spray-origin="#path2"
       xlink:href="#path2"
       transform="translate(-1.3983734,-0.07918552)" /><use
       id="use165"
       inkscape:spray-origin="#path2"
       xlink:href="#path2"
       transform="translate(-1.6389456,-0.16773642)" /><use
       id="use166"
       inkscape:spray-origin="#path2"
       xlink:href="#path2"
       transform="translate(-2.149969,0.02436873)" /><use
       id="use167"
       inkscape:spray-origin="#path2"
       xlink:href="#path2"
       transform="translate(-2.1934248,-0.25826827)" /><use
       id="use168"
       inkscape:spray-origin="#path2"
       xlink:href="#path2"
       transform="translate(-2.5843242,0.06908261)" /><use
       id="use169"
       inkscape:spray-origin="#path2"
       xlink:href="#path2"
       transform="translate(-2.5937057,-0.09880188)" /><use
       id="use170"
       inkscape:spray-origin="#path2"
       xlink:href="#path2"
       transform="translate(-2.8613358,-0.20435588)" /><use
       id="use171"
       inkscape:spray-origin="#path2"
       xlink:href="#path2"
       transform="translate(-2.890336,0.08697868)" /><use
       id="use172"
       inkscape:spray-origin="#path2"
       xlink:href="#path2"
       transform="translate(-2.8436874,0.02460176)" /><use
       id="use173"
       inkscape:spray-origin="#path2"
       xlink:href="#path2"
       transform="translate(-2.9722625,-0.21779137)" /><use
       id="use174"
       inkscape:spray-origin="#path2"
       xlink:href="#path2"
       transform="translate(-3.0623052,-0.14077171)" /><use
       id="use175"
       inkscape:spray-origin="#path2"
       xlink:href="#path2"
       transform="translate(-2.9160491,-0.03804541)" /><use
       id="use176"
       inkscape:spray-origin="#path2"
       xlink:href="#path2"
       transform="translate(-2.8279799,0.06654472)" /><use
       id="use177"
       inkscape:spray-origin="#path2"
       xlink:href="#path2"
       transform="translate(-3.3553487,-0.03867771)" /><use
       id="use178"
       inkscape:spray-origin="#path2"
       xlink:href="#path2"
       transform="translate(-3.3807474,-0.23553469)" /><use
       id="use179"
       inkscape:spray-origin="#path2"
       xlink:href="#path2"
       transform="translate(-3.1611391,-0.16890186)" /><use
       id="use180"
       inkscape:spray-origin="#path2"
       xlink:href="#path2"
       transform="translate(-3.2541818,0.02773372)" /><use
       id="use181"
       inkscape:spray-origin="#path2"
       xlink:href="#path2"
       transform="translate(-3.30612,-0.02279756)" /></g></svg>
