<?xml version="1.0" encoding="UTF-8" standalone="no"?>
<!-- Created with Inkscape (http://www.inkscape.org/) -->

<svg
   width="100"
   height="100"
   viewBox="0 0 26.458333 26.458333"
   version="1.1"
   id="svg1"
   xml:space="preserve"
   xmlns:inkscape="http://www.inkscape.org/namespaces/inkscape"
   xmlns:sodipodi="http://sodipodi.sourceforge.net/DTD/sodipodi-0.dtd"
   xmlns="http://www.w3.org/2000/svg"
   xmlns:svg="http://www.w3.org/2000/svg"><sodipodi:namedview
     id="namedview1"
     pagecolor="#ffffff"
     bordercolor="#000000"
     borderopacity="0.25"
     inkscape:showpageshadow="2"
     inkscape:pageopacity="0.0"
     inkscape:pagecheckerboard="0"
     inkscape:deskcolor="#d1d1d1"
     inkscape:document-units="mm" /><defs
     id="defs1" /><g
     inkscape:label="Layer 1"
     inkscape:groupmode="layer"
     id="layer1"><path
       style="fill:#aa0000;stroke-width:0.142021"
       d="m 14.404489,26.023909 c 1.684972,-0.191745 2.99583,-0.568045 4.467054,-1.282357 1.870824,-0.908327 3.567656,-2.361677 4.787905,-4.100877 0.836102,-1.19168 1.497289,-2.593181 1.870734,-3.965349 0.820763,-3.015766 0.52235,-6.178901 -0.84635,-8.9711566 C 23.45908,5.2055789 21.455598,3.194684 18.946305,1.9454142 17.102912,1.027667 15.310689,0.60978091 13.208289,0.60750036 11.124834,0.60520765 9.2475856,1.0517067 7.4328883,1.9810604 6.5157005,2.4507774 5.9034835,2.8494008 5.059182,3.5266136 4.689,3.8235375 3.7512303,4.7458842 3.3335065,5.2239076 L 3.0913432,5.501032 2.1634985,4.6762086 C 1.1316856,3.7589586 1.0237567,3.6667504 1.0051362,3.6865512 0.99794803,3.6941592 0.93117988,4.8476309 0.85658695,6.2499318 0.43894111,14.10138 0.47049116,13.350723 0.55896874,13.331272 0.75805314,13.287469 2.0523493,12.987238 2.592022,12.859612 2.9312547,12.779378 3.7471002,12.58689 4.4050105,12.431849 5.0629209,12.27681 5.8955868,12.08025 6.2553809,11.995062 6.6151749,11.909879 7.4226102,11.720959 8.0496812,11.575255 8.67675,11.429551 9.2607575,11.289337 9.3474739,11.26367 L 9.5051409,11.217 8.8079871,10.593756 C 8.4245551,10.250971 7.8826027,9.7688217 7.6036481,9.5223139 7.3246935,9.2758059 7.0913892,9.0444417 7.0851909,9.0081717 7.0699417,8.9189291 8.2009558,7.7635175 8.5917085,7.4691518 9.5901887,6.7169675 10.683969,6.2442207 11.993399,5.9988959 c 0.581653,-0.1089707 2.012698,-0.099161 2.591431,0.017774 0.650873,0.1315058 1.251264,0.3194504 1.749993,0.5478124 2.703706,1.2379976 4.387092,3.8228917 4.387092,6.7365157 0,1.112693 -0.235075,2.165636 -0.706903,3.166366 -0.59274,1.257187 -1.591891,2.380439 -2.779485,3.124725 -0.829182,0.519647 -1.641118,0.839512 -2.675167,1.053859 -0.527516,0.109321 -1.84798,0.1391 -2.434952,0.05491 C 10.761682,20.505138 9.5480555,19.989051 8.4982557,19.158407 8.1022936,18.845116 7.8018443,18.542312 7.0087382,17.657249 6.6271043,17.23137 6.1565154,16.708367 5.9629885,16.495036 L 5.6111198,16.107152 5.3631865,16.324647 c -0.3068766,0.269224 -1.6849174,1.508445 -2.8200022,2.535938 l -0.852535,0.771726 0.1073527,0.117284 c 0.059026,0.06455 0.4169105,0.465771 0.7952636,0.891651 1.6939376,1.906754 2.1555566,2.357429 3.1467028,3.072093 0.6184676,0.445957 1.7641067,1.076615 2.5429308,1.399847 0.9855137,0.409022 2.1774498,0.719248 3.3630578,0.875301 0.642227,0.08447 2.156232,0.104013 2.758533,0.03547 z"
       id="path1" /></g></svg>
