<?xml version="1.0" encoding="UTF-8" standalone="no"?>
<!-- Created with Inkscape (http://www.inkscape.org/) -->

<svg
   width="140"
   height="101"
   viewBox="0 0 37.041666 26.722916"
   version="1.1"
   id="svg1"
   xml:space="preserve"
   inkscape:export-filename="refresh.svg"
   inkscape:export-xdpi="96"
   inkscape:export-ydpi="96"
   xmlns:inkscape="http://www.inkscape.org/namespaces/inkscape"
   xmlns:sodipodi="http://sodipodi.sourceforge.net/DTD/sodipodi-0.dtd"
   xmlns="http://www.w3.org/2000/svg"
   xmlns:svg="http://www.w3.org/2000/svg"><sodipodi:namedview
     id="namedview1"
     pagecolor="#ffffff"
     bordercolor="#000000"
     borderopacity="0.25"
     inkscape:showpageshadow="2"
     inkscape:pageopacity="0.0"
     inkscape:pagecheckerboard="0"
     inkscape:deskcolor="#d1d1d1"
     inkscape:document-units="mm" /><defs
     id="defs1" /><g
     inkscape:label="Layer 1"
     inkscape:groupmode="layer"
     id="layer1"><path
       style="fill:#aa0000;stroke-width:0.142021"
       d="m 49.346629,3.3369424 c 1.684972,-0.191745 2.99583,-0.568045 4.467054,-1.282357 1.870824,-0.908327 3.567656,-2.36167698 4.787905,-4.100877 0.836102,-1.19168 1.497289,-2.593181 1.870734,-3.965349 0.820763,-3.015766 0.52235,-6.1789014 -0.84635,-8.9711564 -1.224752,-2.498591 -3.228234,-4.509486 -5.737527,-5.758755 -1.843393,-0.917748 -3.635616,-1.335634 -5.738016,-1.337914 -2.083455,-0.0023 -3.960704,0.444206 -5.775401,1.37356 -0.917188,0.469717 -1.529405,0.86834 -2.373706,1.545553 -0.370182,0.296924 -1.307952,1.219271 -1.725676,1.697294 l -0.242163,0.277124 -0.927845,-0.824823 c -1.031813,-0.91725 -1.139742,-1.009458 -1.158362,-0.989657 -0.0072,0.0076 -0.07396,1.161079 -0.148549,2.56338 -0.417646,7.8514484 -0.386096,7.1007914 -0.297619,7.0813404 0.199085,-0.043803 1.493381,-0.344034 2.033054,-0.47166 0.339232,-0.080234 1.155078,-0.2727224 1.812988,-0.4277634 0.657911,-0.155039 1.490576,-0.351599 1.850371,-0.436787 0.359794,-0.08518 1.167229,-0.274103 1.7943,-0.419807 0.627069,-0.145704 1.211076,-0.285918 1.297793,-0.311585 l 0.157667,-0.04667 -0.697154,-0.623244 c -0.383432,-0.342785 -0.925385,-0.824934 -1.204339,-1.071442 -0.278955,-0.246508 -0.512259,-0.477872 -0.518457,-0.514142 -0.01525,-0.08924 1.115764,-1.244654 1.506517,-1.53902 0.99848,-0.752184 2.092261,-1.224931 3.401691,-1.470256 0.581653,-0.10897 2.012698,-0.09916 2.591431,0.01777 0.650873,0.131506 1.251264,0.319451 1.749993,0.547813 2.703706,1.237997 4.387092,3.822891 4.387092,6.7365154 0,1.112693 -0.235075,2.165636 -0.706903,3.166366 -0.59274,1.257187 -1.591891,2.380439 -2.779485,3.124725 -0.829182,0.519647 -1.641118,0.839512 -2.675167,1.053859 -0.527516,0.109321 -1.84798,0.1391 -2.434952,0.05491 -1.363726,-0.19572 -2.577353,-0.711807 -3.627153,-1.542451 -0.395962,-0.313291 -0.696411,-0.616095 -1.489517,-1.501158 -0.381634,-0.425879 -0.852223,-0.948882 -1.04575,-1.162213 l -0.351869,-0.387884 -0.247933,0.217495 c -0.306876,0.269224 -1.684917,1.508445 -2.820002,2.535938 l -0.852535,0.771726 0.107353,0.117284 c 0.05903,0.06455 0.41691,0.465771 0.795263,0.891651 1.693938,1.90675402 2.155557,2.35742902 3.146703,3.072093 0.618468,0.445957 1.764107,1.076615 2.542931,1.399847 0.985514,0.409022 2.17745,0.719248 3.363058,0.875301 0.642227,0.08447 2.156232,0.104013 2.758533,0.03547 z"
       id="path1" /><path
       style="fill:#800000;stroke-width:0.284657"
       d="m 11.943904,24.903042 c -0.249573,-0.144671 -0.570651,-0.467552 -0.70339,-0.707338 -0.115232,-0.208158 -0.123154,-1.062001 -0.10062,-10.84543 0.01631,-7.0775 0.05064,-10.7074054 0.102957,-10.8830879 0.240191,-0.8065778 1.222013,-1.1931189 1.981418,-0.7800797 0.33553,0.1824953 1.153045,0.5853128 1.581625,0.7793205 0.207119,0.093757 0.766336,0.3561013 1.242707,0.582986 0.47637,0.2268849 1.086424,0.5147602 1.355679,0.6397229 0.269251,0.1249625 1.195331,0.5620384 2.05795,0.9712795 0.862622,0.4092413 1.582804,0.7440751 1.600404,0.7440751 0.01759,0 0.345528,0.1554258 0.728722,0.3453908 0.383196,0.1899649 1.052584,0.5086728 1.487532,0.7082398 0.434947,0.199567 1.180569,0.5479576 1.656939,0.7742012 0.476371,0.2262439 1.052534,0.4973176 1.280365,0.6023862 0.227828,0.1050683 0.787045,0.367509 1.242704,0.583202 0.455659,0.215692 1.065716,0.503525 1.355679,0.639628 5.33274,2.5030806 6.347175,3.0022896 6.598556,3.2471876 0.278138,0.270964 0.443444,0.665046 0.443444,1.057157 0,0.288473 -0.289374,0.847702 -0.52721,1.01886 -0.103558,0.07453 -0.950857,0.494894 -1.882886,0.934152 -0.93203,0.439258 -2.219923,1.046187 -2.86199,1.348731 -0.642064,0.302545 -1.574093,0.744015 -2.071175,0.981046 -0.497083,0.23703 -1.141031,0.541642 -1.430994,0.676915 -1.113339,0.519387 -1.83329,0.857957 -2.523071,1.186517 -2.038918,0.971191 -2.564489,1.220237 -3.012618,1.427551 -0.269252,0.124562 -0.941017,0.443016 -1.492807,0.707675 -0.551793,0.264659 -1.014583,0.481198 -1.028426,0.481198 -0.01383,0 -0.514398,0.234242 -1.112345,0.520536 -4.522969,2.165576 -4.817293,2.293717 -5.328966,2.320076 -0.281856,0.01452 -0.553456,-0.01181 -0.640183,-0.0621 z m 4.594247,-4.680386 c 0.869895,-0.414841 1.751084,-0.83093 1.958204,-0.924642 0.207116,-0.09371 0.851064,-0.397981 1.430993,-0.676154 0.579929,-0.278174 1.257768,-0.599568 1.506311,-0.71421 0.631172,-0.291134 1.604651,-0.748548 2.447751,-1.150139 2.021824,-0.963047 2.564255,-1.220166 3.012621,-1.428019 0.269251,-0.124819 0.845417,-0.39655 1.280364,-0.603846 0.434945,-0.207296 1.231406,-0.580606 1.769912,-0.829578 1.379832,-0.637948 1.352405,-0.611278 0.858403,-0.834691 -0.575949,-0.260476 -1.523965,-0.703291 -3.513273,-1.64104 -0.362457,-0.17086 -0.930145,-0.43802 -1.261534,-0.593689 -0.33139,-0.155669 -0.924498,-0.4353 -1.318022,-0.621401 C 24.316357,10.019145 22.82511,9.3167674 21.395999,8.6444074 19.96689,7.9720477 18.091834,7.0866319 17.229213,6.676817 16.366594,6.2670017 15.647587,5.9316987 15.631428,5.9316987 c -0.01617,0 -0.374023,-0.16946 -0.795247,-0.3765776 -0.421224,-0.2071175 -0.795234,-0.3765772 -0.831138,-0.3765772 -0.0359,0 -0.06528,1.2018583 -0.06528,2.6707967 v 2.6707964 l 0.282434,0.07481 c 0.949334,0.251446 5.474272,1.39603 5.818121,1.471696 0.598551,0.131713 0.88121,0.303936 1.05368,0.642004 0.298779,0.585656 0.09206,1.246058 -0.472684,1.510103 -0.174566,0.08162 -1.622232,0.472612 -3.217036,0.868876 -1.594808,0.396265 -3.026744,0.753412 -3.182081,0.793661 l -0.282434,0.07318 v 2.741389 2.741389 l 0.508381,-0.230165 c 0.27961,-0.12659 1.22011,-0.56958 2.090005,-0.984421 z M 2.0219203,18.354052 c -0.317957,-0.167869 -0.584525,-0.612237 -0.584525,-0.974399 0,-0.373725 0.266415,-0.807632 0.600537,-0.978088 0.28462,-0.145202 0.438472,-0.151645 3.621576,-0.151645 3.710187,0 3.674569,-0.0046 4.029532,0.517799 0.3714267,0.546604 0.155315,1.333323 -0.444446,1.617929 -0.230038,0.10916 -0.654252,0.123345 -3.600914,0.120408 -3.176668,-0.0032 -3.35394,-0.01061 -3.62176,-0.152004 z m 0,-4.142352 c -0.317957,-0.167869 -0.584525,-0.612236 -0.584525,-0.974399 0,-0.373725 0.266415,-0.807632 0.600537,-0.978088 0.28462,-0.145202 0.438472,-0.151645 3.621576,-0.151645 3.710187,0 3.674569,-0.0046 4.029532,0.517799 0.3714267,0.546604 0.155315,1.333324 -0.444446,1.617929 -0.230038,0.10916 -0.654252,0.123345 -3.600914,0.120409 -3.176668,-0.0032 -3.35394,-0.01061 -3.62176,-0.152005 z m 0,-4.3682976 c -0.317957,-0.167869 -0.584525,-0.612237 -0.584525,-0.974399 0,-0.373725 0.266415,-0.8076317 0.600537,-0.9780883 0.28462,-0.1452024 0.438472,-0.1516448 3.621576,-0.1516448 3.710187,0 3.674569,-0.00458 4.029532,0.5177982 0.3714267,0.5466039 0.155315,1.3333239 -0.444446,1.6179299 -0.230038,0.10916 -0.654252,0.123345 -3.600914,0.120408 -3.176668,-0.0032 -3.35394,-0.01061 -3.62176,-0.152004 z"
       id="path2" /></g></svg>
